<svg width="18" height="18" viewBox="0 0 18 18" fill="none" xmlns="http://www.w3.org/2000/svg">
<path d="M9 0C4.03685 0 0 4.03685 0 9C0 13.9631 4.03685 18 9 18C13.9631 18 18 13.9631 18 9C18 4.03685 13.9631 0 9 0ZM7.59375 5.40948C7.71756 5.19854 7.98811 5.12823 8.19905 5.25204L8.59188 5.48132C8.80282 5.60513 8.87466 5.87568 8.75085 6.08815L8.36107 6.75459L7.20397 6.07745L7.59375 5.40948ZM3.25883 8.34426H5.66321L4.89742 9.63893H3.25883V8.34426ZM3.83815 13.3334C3.8091 13.3609 3.7663 13.3655 3.73115 13.3456C3.69752 13.3257 3.68071 13.286 3.69141 13.2478L4.25085 11.1308L5.40795 11.8079L3.83815 13.3334ZM4.39606 10.8801L7.10921 6.23947L8.2663 6.91661L5.55316 11.5572L4.39606 10.8801ZM6.88298 9.63893L7.60139 8.34579H10.3742L11.0926 9.63893H6.88298ZM8.28923 4.31199C8.16542 4.10105 8.23879 3.82897 8.44973 3.70669L8.80893 3.49728C9.01987 3.375 9.29042 3.44684 9.41423 3.65778L12.482 8.93886L11.357 9.59307L8.28923 4.31199ZM11.4823 9.81012L12.6073 9.15591L13.2585 10.2763L12.1335 10.929L11.4823 9.81012ZM13.85 13.2982C13.824 13.3349 13.7583 13.3043 13.7385 13.2738C13.6865 13.1912 13.7323 13.0781 13.5673 12.8259C13.2631 12.3628 12.8611 12.4545 12.4728 11.8018C12.404 11.6872 12.1717 11.1613 12.4728 10.9825C12.6333 10.8862 12.9054 10.7242 13.0888 10.6218C13.3976 10.446 13.6834 10.8144 13.8409 11.0452C14.1802 11.5404 14.3178 12.6532 13.85 13.2982ZM14.7244 9.63893H13.1118L12.4071 8.34579H14.7244V9.63893Z" fill="#2196F3"/>
</svg>
