<svg xmlns="http://www.w3.org/2000/svg" width="55" height="55" viewBox="0 0 55 55">
  <g id="XMLID_1_" transform="translate(-20.5 -20.5)">
    <path id="XMLID_12_" d="M48,20.5A27.5,27.5,0,1,0,75.5,48,27.484,27.484,0,0,0,48,20.5ZM29.7,48.8V43.9a.789.789,0,0,1,.8-.8h8.4l-3.7,6.4H30.4A.684.684,0,0,1,29.7,48.8Zm6,10.3L32.9,61c-.4.3-.6.1-.6-.4l.4-3.3c.1-.5.4-.6.8-.4l2.2,1.2A.567.567,0,0,1,35.7,59.1Zm1.8-2.2a.8.8,0,0,1-1.1.3L34.2,56a.8.8,0,0,1-.3-1.1L37,49.6l3.7-6.4L44,37.4a.8.8,0,0,1,1.1-.3l2.2,1.2a.8.8,0,0,1,.3,1.1l-3.1,5.3-2.7,4.8Zm6-7.4,3.7-6.4h3.3c1.3,2.9,2.2,5,3,6.4Zm13,2.2c-.9-.4-5.2-10.4-6.3-13s-4.5-9.6-3.4-10.1c.8-.4,3.5,5.1,5.6,8.4,1.2,1.9,3.1,5.4,4.6,8.3l.1.1c.1.1.1.3.2.4l.1.1c.1.1.1.2.2.3l.1.2.1.2.2.3V47c.7,1.3,1.2,2.2,1.4,2.6v.1c.5,1-.5,1.8-1.1,2A1.888,1.888,0,0,1,56.5,51.7Zm2.9,4.6L58,54.2a.837.837,0,0,1,.3-1.2l1.2-.6a.962.962,0,0,1,1.2.4l1,2a1.011,1.011,0,0,1-.4,1.3l-.9.5A.733.733,0,0,1,59.4,56.3Zm5.3,5.9c-.3-.9-2.4-.9-3.3-2.3-.9-1.3-.2-2,.2-2.3C65.3,55.5,64.7,62.2,64.7,62.2Zm1.1-13.4a.789.789,0,0,1-.8.8H61c-.1-.2-.1-.4-.2-.6s-.4-.8-.8-1.5c-.6-1.1-1.4-2.6-2.2-4.2H65a.789.789,0,0,1,.8.8v4.7Z" fill="#afafaf"/>
  </g>
</svg>
