<svg xmlns="http://www.w3.org/2000/svg" xmlns:xlink="http://www.w3.org/1999/xlink" width="264.059" height="241.444" viewBox="0 0 264.059 241.444">
  <defs>
    <clipPath id="clip-path">
      <path id="path18" d="M0-1054.516H264.059v241.444H0Z" transform="translate(0 1054.516)"/>
    </clipPath>
  </defs>
  <g id="g10" transform="translate(0 1054.516)">
    <g id="g14" transform="translate(0 -1054.516)">
      <g id="g16" clip-path="url(#clip-path)">
        <g id="g22" transform="translate(61.185 34.787)">
          <path id="path24" d="M-458.919,0H-575.463c-9.446,0-12.932,3.627-12.932,13.461V132.116c0,1.113.043,2.146.137,3.1.215,2.146.256,4.226,2.174,6.594.188.232,2.146,1.749,2.146,1.749,1.054.538,1.773.934,2.961,1.431l57.387,25.017c2.98,1.421,4.226,1.975,6.389,1.93h.017c2.163.045,3.409-.509,6.389-1.93l57.387-25.017c1.189-.5,1.908-.894,2.962-1.431,0,0,1.959-1.517,2.146-1.749,1.919-2.368,1.959-4.448,2.174-6.594.094-.958.138-1.991.138-3.1V13.461C-445.986,3.627-449.473,0-458.919,0" transform="translate(588.394 0)" fill="#2f2d2e" fill-rule="evenodd"/>
        </g>
        <g id="g26" transform="translate(81.898 139.246)">
          <path id="path28" d="M-357.837-49.95l-.026.274-.026.3-.053.274-.079.274-.051.246-.079.274-.1.246-.105.219-.1.246-.132.219-.132.219-.156.219-.132.219-.156.191-.184.192-.157.164-.21.192-.183.164-.21.164-.209.135-.209.164-.237.137-.235.11-.235.137-.263.11-.261.11-.262.082-.261.082-.237.082-.262.055-.235.055-.235.055-.263.055-.262.027-.235.027-.263.027-.288.027-.262.027h-1.1l-.262-.027h-.287l-.262-.027-.263-.027-.288-.027-.262-.055-.262-.028-.263-.055-.262-.055-.261-.055-.262-.055-.263-.082-.235-.055-.262-.082-.262-.082-.236-.11-.262-.082-.235-.082-.262-.11-.236-.11-.235-.11-.235-.135-.237-.11-.235-.137-.209-.136-.237-.137-.209-.137-.21-.137-.209-.164-.209-.164-.21-.164-.209-.164-.184-.164-.209-.191.158-.219.183-.192.158-.219.183-.219.158-.191.156-.219.184-.219.156-.191.184-.219.156-.192.184-.219.156-.219.158-.191.183-.219.158-.219.183-.191.158-.219.209.164.235.164.21.164.235.164.211.137.235.164.208.137.237.109.208.137.235.11.237.109.235.11.235.082.236.109.261.082.262.082.235.082.263.055.261.055.262.055.288.028.263.055h.262l.288.027h.576l.288-.027.263-.055.235-.055.235-.055.21-.082.183-.109.21-.164.156-.192.105-.219.079-.246.026-.274v-.055l-.026-.328-.105-.274-.131-.191-.183-.164-.211-.164-.209-.109-.235-.11-.263-.11-.314-.136-.183-.055-.209-.055-.237-.082-.235-.055-.262-.082-.263-.055-.287-.082-.262-.055-.288-.082-.261-.055-.263-.082-.261-.055-.262-.082-.237-.082-.261-.055-.235-.082-.235-.082-.237-.082-.288-.11-.262-.11-.262-.109-.263-.11-.235-.137-.261-.137-.21-.137-.235-.137-.209-.164-.21-.137-.182-.165-.184-.191-.183-.192-.158-.192-.156-.191-.132-.191-.13-.219-.131-.246-.105-.19-.079-.219-.077-.246-.079-.219-.053-.274-.053-.246-.027-.274-.026-.274-.026-.3v-.63l.026-.273.026-.246.027-.274.053-.246.053-.246.079-.247.053-.246.1-.246.105-.246.105-.246.13-.247.131-.246.156-.219.158-.219.182-.219.184-.191.183-.219.21-.192.183-.137.21-.164.209-.164.209-.137.237-.137.235-.11.235-.137.237-.109.261-.082.261-.109.237-.082.209-.055.235-.055.236-.055.261-.055.235-.055.261-.027.263-.027.261-.027.262-.027h1.126l.288.027.288.027h.262l.289.027.261.055.288.027.262.055.237.055.262.055.261.055.236.055.263.082.235.082.235.055.263.109.235.082.235.109.236.11.263.11.235.137.209.11.237.137.235.137.209.137.237.164.209.136.21.165.209.164.208.164-.156.219-.132.219-.156.219-.158.219-.156.246-.132.219-.158.219-.156.219-.131.219-.157.219-.158.219-.132.219-.156.246-.158.219-.156.219-.131.219-.157.219-.211-.164-.235-.137-.209-.137-.21-.164-.235-.109-.211-.137-.235-.11-.209-.109-.237-.11-.209-.109-.235-.082-.21-.11-.288-.082-.261-.082-.262-.082-.263-.055-.262-.055-.261-.055-.261-.027-.263-.027-.235-.027h-.576l-.288.055-.263.055-.235.055-.209.11-.184.109-.235.219-.158.246-.1.246-.027.274v.055l.027.356.129.3.105.164.182.192.237.137.209.137.261.11.289.11.314.109.209.055.209.082.237.055.235.082.261.055.289.082.288.082.288.082.287.055.261.082.288.082.263.055.262.082.262.082.235.082.263.082.235.082.235.082.289.108.261.137.262.109.262.137.237.137.235.137.209.137.21.164.209.137.209.192.211.191.182.219.184.191.156.219.158.246.13.219.132.247.105.219.079.246.077.246.052.246.052.274.053.274.026.273.026.3v.657ZM-376.2-44.477h-15.005V-64.4h15.136v4.516h-10.135v3.257h9.114v4.241h-9.114v3.393h10.266v4.515Zm-19.134,0h-4.792v-11.78l-.131.219-.156.248-.132.219-.156.219-.131.246-.158.219-.13.219-.132.248-.156.219-.132.219-.158.219-.13.248-.158.219-.13.219-.132.246-.158.22-.13.219-.158.246-.13.219-.158.219-.13.248-.132.219-.158.219-.13.246-.158.22-.13.219-.158.219-.132.246-.13.22-.157.219-.13.246-.158.219-.131.219-.157.248-.131.219h-.1l-.158-.246-.132-.221-.157-.246-.131-.219-.156-.246-.132-.221-.156-.246-.131-.219-.158-.246-.13-.219-.158-.248-.13-.219-.158-.246-.132-.219-.156-.248-.132-.219-.156-.246-.158-.219-.132-.248-.157-.219-.131-.246-.156-.219-.131-.248-.157-.219-.131-.246-.158-.219-.13-.246-.158-.221-.13-.246-.158-.219-.131-.246-.156-.219-.132-.248-.156-.219v11.725h-4.976V-64.4h5.369l.13.219.131.246.156.217.132.246.131.219.13.247.132.217.157.247.131.219.132.219.13.245.131.219.157.246.132.219.131.245.13.219.158.219.132.245.129.219.132.246.13.219.158.245.131.219.13.246.132.217.13.219.158.246.132.219.13.246.131.217.13.246.158.219.132.244.13.219.131-.219.132-.244.156-.219.131-.246.13-.217.132-.246.156-.219.132-.246.132-.219.13-.217.157-.246.13-.219.132-.245.131-.219.157-.246.131-.219.132-.245.13-.219.132-.219.156-.245.132-.219.131-.246.13-.219.158-.245.13-.219.131-.219.132-.247.156-.217.132-.247.13-.219.132-.246.158-.217.13-.246.132-.219h5.367v19.922Zm-30.384-8.209-.079-.248-.1-.274-.105-.246-.079-.248-.1-.246-.105-.274-.079-.248-.105-.246-.1-.246-.079-.248-.105-.274-.077-.246-.105-.248-.105-.246-.079-.246-.1-.275-.1-.247-.079-.246-.1-.248-.1-.274-.079-.248-.106-.246-.1.246-.079.248-.105.274-.105.248-.077.246-.1.247-.105.275-.1.246-.08.246-.1.248-.105.246-.077.274-.105.248-.105.246-.078.246-.1.248-.105.274-.1.246-.077.248-.105.246-.106.274-.079.248-.1.246h4.425Zm8.224,8.209h-5.134l-.1-.247-.079-.246-.1-.246-.105-.274-.078-.245-.105-.246-.105-.246-.078-.246-.105-.246-.105-.246-.079-.246-.1-.274-.105-.246-.079-.246-.105-.246h-7.515l-.1.246-.078.246-.105.246-.105.274-.077.246-.1.246-.106.246-.079.246-.1.246-.105.246-.079.245-.1.274-.105.246-.078.246-.106.247h-5.289l.1-.247.105-.246.105-.246.1-.274.079-.245.105-.246.105-.246.1-.246.105-.246.105-.274.1-.246.105-.246.079-.246.105-.246.1-.246.105-.274.1-.246.1-.247.105-.246.1-.246.08-.246.1-.274.105-.246.105-.246.1-.246.105-.246.105-.246.1-.274.079-.246.105-.246.1-.246.1-.246.1-.246.1-.274.1-.246.1-.246.079-.246.105-.246.1-.246.105-.274.105-.246.1-.246.1-.246.105-.246.079-.247.1-.245.105-.274.1-.246.1-.247.105-.246.105-.246.1-.246.079-.274.106-.246.1-.246.1-.246.106-.246.1-.246.1-.274.105-.246.079-.246.1-.246.1-.246.1-.246.106-.274.1-.246.105-.246.105-.246.077-.246.105-.247.106-.274.105-.246.1-.246.105-.246.1-.246.1-.246.079-.274.105-.246.105-.246.1-.246h4.844l.1.246.105.246.1.246.105.274.078.246.1.246.106.246.1.246.105.246.1.274.105.247.105.246.077.246.105.246.105.246.106.274.1.246.105.246.105.246.1.246.079.246.105.274.1.246.105.246.1.246.105.246.1.246.105.274.079.246.1.246.1.246.105.247.105.246.1.274.105.245.1.247.078.246.1.246.105.246.1.246.105.274.105.246.106.246.1.246.079.246.1.246.1.274.105.246.105.246.105.246.1.246.105.246.079.274.1.246.1.246.105.246.1.246.106.246.105.274.105.246.077.246.105.246.105.247.1.246.1.274.105.246.105.246.1.246.079.246.105.246.1.274.1.246.105.246.1.246.105.246.1.245.079.274.1.246.105.246.105.247Zm-22.942-2.544-.21.164-.183.137-.21.164-.209.137-.209.164-.21.137-.209.137-.237.136-.236.137-.235.137-.236.108-.235.137-.262.109-.235.11-.263.109-.235.11-.236.082-.237.082-.235.082-.262.082-.235.082-.263.055-.235.055-.261.055-.263.055-.262.027-.287.027-.262.027-.288.027-.263.027-.288.027h-1.127l-.261-.027-.288-.027-.261-.027-.261-.027-.263-.027-.261-.055-.262-.055-.235-.055-.263-.055-.235-.082-.261-.055-.237-.082-.235-.109-.235-.082-.261-.11-.237-.109-.235-.109-.235-.11-.237-.137-.209-.136-.235-.137-.21-.137-.209-.136-.211-.165-.209-.164-.209-.164-.184-.164-.182-.164-.184-.192-.182-.164-.184-.192-.182-.192-.158-.191-.156-.219-.158-.192-.132-.219-.157-.219-.131-.219-.13-.219-.131-.246-.131-.219-.1-.246-.105-.246-.105-.246-.1-.246-.079-.219-.105-.247-.053-.246-.077-.246-.053-.274-.079-.247-.052-.274-.026-.246-.053-.274-.026-.246-.026-.274-.025-.274-.026-.274v-.9l.026-.3v-.274l.025-.274.026-.3.053-.272.026-.274.052-.246.079-.274.053-.274.077-.246.079-.273.079-.246.106-.274.1-.246.105-.246.105-.246.1-.246.131-.246.131-.219.13-.219.131-.219.132-.219.156-.219.158-.219.156-.219.158-.192.182-.191.158-.192.183-.191.184-.192.182-.164.21-.192.183-.164.209-.164.211-.137.209-.164.211-.137.208-.137.235-.137.237-.137.235-.137.235-.11.236-.109.262-.137.209-.082.261-.082.237-.109.235-.055.235-.082.263-.055.235-.082.261-.055.262-.027.263-.055.262-.027.261-.027.262-.027.263-.027h1.125l.289.027.288.027h.261l.262.027.288.055.236.027.262.055.262.055.236.055.235.055.236.055.237.082.235.055.209.082.237.082.235.109.235.11.237.11.235.137.235.11.21.137.235.137.209.137.237.137.209.164.209.137.21.164.209.164.21.191.209.164-.158.219-.182.191-.158.219-.182.219-.158.219-.157.191-.184.219-.156.219-.158.192-.183.219-.157.219-.183.219-.158.192-.156.219-.184.219-.157.219-.184.192-.156.219-.211-.164-.209-.191-.211-.137-.209-.164-.209-.137-.21-.137-.209-.136-.235-.137-.21-.109-.209-.11-.21-.082-.235-.082-.235-.082-.237-.055-.261-.055-.261-.055-.262-.027-.288-.028-.289-.027h-.549l-.261.027-.237.028-.261.055-.235.055-.237.082-.235.082-.235.11-.235.109-.21.137-.209.137-.211.137-.182.164-.184.164-.183.164-.157.191-.183.192-.158.219-.13.192-.131.219-.13.246-.132.219-.105.246-.079.246-.1.246-.079.274-.053.272-.053.246-.053.3-.026.274-.025.274v.63l.025.274.026.246.026.274.053.246.053.247.052.246.079.246.077.219.105.274.105.247.13.246.131.219.131.219.157.219.158.191.182.192.158.191.182.164.211.164.209.164.209.137.21.137.235.11.235.11.237.109.262.082.261.082.263.055.261.055.262.027.288.027h.6l.289-.027.288-.027.261-.027.262-.055.263-.055.261-.082.235-.055.236-.109.21-.11.235-.11.183-.109.21-.137v-2.49H-448.9v-3.994h8.642v8.893Z" transform="translate(458.795 64.783)" fill="#fff"/>
        </g>
        <g id="g30" transform="translate(82.195 57.637)">
          <path id="path32" d="M-34.161-124.322h11.35v-9.135h-11.35v-18.648h11.8v-9.135H-43.8v65.925H-22.18v-9.135H-34.161Z" transform="translate(43.799 161.24)" fill="#fff"/>
        </g>
        <g id="g34" transform="translate(154.39 57.071)">
          <path id="path36" d="M-66.41-132.89v14.881c0,2.637-1.172,3.861-3.6,3.861h-1.8c-2.522,0-3.693-1.224-3.693-3.861v-41.629c0-2.637,1.171-3.861,3.693-3.861h1.622c2.432,0,3.6,1.224,3.6,3.861v12.9h9.457V-160.2c0-8.193-3.783-12.149-11.619-12.149h-4.685c-7.836,0-11.71,4.049-11.71,12.244v42.569c0,8.195,3.875,12.244,11.71,12.244h4.775c7.837,0,11.71-4.049,11.71-12.244V-132.89Z" transform="translate(85.146 172.352)" fill="#fff"/>
        </g>
        <path id="path38" d="M634.658-736.859H644.3v-65.926h-9.639Z" transform="translate(-495.002 860.421)" fill="#fff"/>
        <g id="g40" transform="translate(108.466 57.636)">
          <path id="path42" d="M-60.979-98.635c0,2.637-1.17,3.862-3.6,3.862h-3.964v-24.3h3.964c2.432,0,3.6,1.224,3.6,3.861Zm-2.072-29.29H-78.184V-62h9.638V-85.922h5.495c7.837,0,11.71-4.049,11.71-12.242v-17.518c0-8.194-3.873-12.244-11.71-12.244" transform="translate(78.184 127.925)" fill="#fff"/>
        </g>
        <g id="g44" transform="translate(104.932 183.172)">
          <path id="path46" d="M0,0H55.175L27.013,9.663Z" fill="#fff" fill-rule="evenodd"/>
        </g>
      </g>
    </g>
  </g>
</svg>
