<svg width="16" height="18" viewBox="0 0 16 18" fill="none" xmlns="http://www.w3.org/2000/svg">
<path d="M2.28571 0C1.02795 0 0 1.09038 0 2.42452V15.4539L8 18L16 15.4539V15.1532V2.42452C16 1.09038 14.972 0 13.7143 0H2.28571ZM2.28571 0.808173H13.7143C14.5601 0.808173 15.2381 1.5273 15.2381 2.42452V14.8525L8 17.1555L0.761905 14.8525V2.42452C0.761905 1.5273 1.43986 0.808173 2.28571 0.808173ZM2.66667 2.02043C2.03543 2.02043 1.52381 2.56312 1.52381 3.23269V10.1022C1.52381 10.7717 2.03543 11.3144 2.66667 11.3144H4.19048V10.1022H2.66667V7.27356H3.80952V6.0613H2.66667V3.23269H4.19048V2.02043H2.66667ZM4.95238 2.02043V11.3144H6.09524V7.27356H7.2381C7.86933 7.27356 8.38095 6.73087 8.38095 6.0613V3.23269C8.38095 2.56312 7.86933 2.02043 7.2381 2.02043H4.95238ZM9.14286 2.02043V11.3144H10.2857V2.02043H9.14286ZM12.1905 2.02043C11.5592 2.02043 11.0476 2.56312 11.0476 3.23269V10.1022C11.0476 10.7717 11.5592 11.3144 12.1905 11.3144H13.3333C13.9646 11.3144 14.4762 10.7717 14.4762 10.1022V8.48582H13.3333V10.1022H12.1905V3.23269H13.3333V4.84904H14.4762V3.23269C14.4762 2.56312 13.9646 2.02043 13.3333 2.02043H12.1905ZM6.09524 3.23269H7.2381V6.0613H6.09524V3.23269ZM1.90476 12.1226C1.69448 12.1226 1.52381 12.3036 1.52381 12.5267V14.143C1.52381 14.3661 1.69448 14.5471 1.90476 14.5471H3.42857C3.63886 14.5471 3.80952 14.3661 3.80952 14.143V13.3349H3.04762V13.7389H3.42857V14.042C3.42857 14.0978 3.3859 14.143 3.33333 14.143H2C1.94743 14.143 1.90476 14.0978 1.90476 14.042V12.6277C1.90476 12.5719 1.94743 12.5267 2 12.5267H3.33333C3.3859 12.5267 3.42857 12.5719 3.42857 12.6277V12.9308H3.80952V12.5267C3.80952 12.3036 3.63886 12.1226 3.42857 12.1226H1.90476ZM5.33333 12.1226L4.19048 14.5471H4.57143L4.7619 14.143H6.28571L6.47619 14.5471H6.85714L5.71429 12.1226H5.33333ZM7.2381 12.1226V14.5471H7.61905V12.9308L8.19048 14.143H8.57143L9.14286 12.9308V14.5471H9.52381V12.1226H9.14286L8.38095 13.7389L7.61905 12.1226H7.2381ZM9.90476 12.1226V12.5267V14.143V14.5471H10.2857H11.8095V14.143H10.2857V13.5369H11.0476V13.1328H10.2857V12.5267H11.8095V12.1226H10.2857H9.90476ZM12.5714 12.1226C12.3611 12.1226 12.1905 12.3036 12.1905 12.5267V13.1328C12.1905 13.3559 12.3611 13.5369 12.5714 13.5369H14C14.0526 13.5369 14.0952 13.5822 14.0952 13.6379V14.042C14.0952 14.0978 14.0526 14.143 14 14.143H12.6667C12.6141 14.143 12.5714 14.0978 12.5714 14.042V13.941H12.1905V14.143C12.1905 14.3661 12.3611 14.5471 12.5714 14.5471H14.0952C14.3055 14.5471 14.4762 14.3661 14.4762 14.143V13.5369C14.4762 13.3138 14.3055 13.1328 14.0952 13.1328H12.6667C12.6141 13.1328 12.5714 13.0876 12.5714 13.0318V12.6277C12.5714 12.5719 12.6141 12.5267 12.6667 12.5267H14C14.0526 12.5267 14.0952 12.5719 14.0952 12.6277V12.7287H14.4762V12.5267C14.4762 12.3036 14.3055 12.1226 14.0952 12.1226H12.5714ZM5.52381 12.5267L6.09524 13.7389H4.95238L5.52381 12.5267Z" fill="#2196F3"/>
</svg>
