<svg width="24" height="18" viewBox="0 0 24 18" fill="none" xmlns="http://www.w3.org/2000/svg">
<path d="M12.9674 11.25H8.73943C8.00857 11.25 7.42857 11.8136 7.42857 12.5055V16.7422C7.42857 17.4369 8.00857 18 8.73943 18H12.9674C13.6949 18 14.2857 17.4369 14.2857 16.7422V12.5055C14.2857 11.8136 13.6949 11.25 12.9674 11.25ZM12.5714 15.8265C12.5714 16.0931 12.3463 16.3125 12.0669 16.3125L12.0611 16.3097V16.3125H9.65486V16.3097L9.64857 16.3125C9.368 16.3125 9.14286 16.0931 9.14286 15.8265V13.4252V13.4218C9.14286 13.1541 9.368 12.9375 9.64857 12.9375H9.65429H12.0606H12.0663C12.3463 12.9375 12.5714 13.1541 12.5714 13.4224V15.8265ZM14.1103 0H9.88229C9.15143 0 8.57143 0.563625 8.57143 1.2555V5.49225C8.57143 6.18694 9.15143 6.75 9.88229 6.75H14.1103C14.8377 6.75 15.4286 6.18694 15.4286 5.49225V1.2555C15.4286 0.563625 14.8377 0 14.1103 0ZM13.7143 4.5765C13.7143 4.84312 13.4891 5.0625 13.2097 5.0625L13.204 5.05969V5.0625H10.7977V5.05969L10.7914 5.0625C10.5109 5.0625 10.2857 4.84312 10.2857 4.5765V2.17519V2.17181C10.2857 1.90406 10.5109 1.6875 10.7914 1.6875H10.7971H13.2034H13.2091C13.4891 1.6875 13.7143 1.90406 13.7143 2.17238V4.5765ZM24 18H22.2857V12.9375H21.0829H21.0771C20.796 12.9375 20.5714 13.1535 20.5714 13.4218V13.4252V18H18.8571V12.9375H17.7183H17.7143C17.4326 12.9375 17.1429 13.1496 17.1429 13.4179V13.4213V18H15.4286V12.501C15.4286 11.8091 16.0177 11.25 16.748 11.25H24V18ZM6.28571 18H1.31086C0.58 18 0 17.4369 0 16.7422V12.5055C0 11.8136 0.58 11.25 1.31086 11.25H6.28571V12.9493L2.22571 12.9375H2.22C1.93943 12.9375 1.71429 13.1541 1.71429 13.4224V13.4258V15.8271C1.71429 16.0931 1.93943 16.3125 2.22 16.3125L2.22571 16.3097V16.3125H6.28571V18ZM24 1.2555V8.30475C24 8.99944 23.4091 9.5625 22.6817 9.5625H17.1429V7.875H22.2857V2.17238C22.2857 1.90406 22.0606 1.6875 21.7811 1.6875H21.7754H19.3691H19.3634C19.0823 1.6875 18.8571 1.90406 18.8571 2.17238V2.17575V4.57706C18.8571 4.84312 19.0823 5.0625 19.3629 5.0625L19.3686 5.05969V5.0625H21.1429V6.75H18.4537C17.7229 6.75 17.1429 6.18694 17.1429 5.49225V1.2555C17.1429 0.563625 17.7229 0 18.4537 0H22.6817C23.4091 0 24 0.563625 24 1.2555ZM6.85714 1.2555V8.30475C6.85714 8.99944 6.26629 9.5625 5.53886 9.5625H0V7.875H5.14286V2.17238C5.14286 1.90406 4.91771 1.6875 4.63829 1.6875H4.63257H2.22571H2.22C1.93943 1.6875 1.71429 1.90406 1.71429 2.17238V2.17575V4.57706C1.71429 4.84312 1.93943 5.0625 2.22 5.0625L2.22571 5.05969V5.0625H4V6.75H1.31086C0.58 6.75 0 6.18694 0 5.49225V1.2555C0 0.563625 0.58 0 1.31086 0H5.53886C6.26629 0 6.85714 0.563625 6.85714 1.2555Z" fill="#2196F3"/>
</svg>
