<svg xmlns="http://www.w3.org/2000/svg" width="34.072" height="34.079" viewBox="0 0 34.072 34.079">
  <g id="nitendo" transform="translate(-33.121 517)">
    <path id="Path_1" data-name="Path 1" d="M40.416-516.819A8.807,8.807,0,0,0,33.43-510.4c-.31,1.192-.332,1.891-.3,11.141.021,8.5.028,8.693.169,9.349a8.848,8.848,0,0,0,6.866,6.887,31.331,31.331,0,0,0,4.876.148c3.951.028,4.361.021,4.466-.085s.113-1.468.113-16.906c0-11.445-.021-16.836-.071-16.935-.071-.127-.191-.134-4.325-.127A45.631,45.631,0,0,0,40.416-516.819ZM46.8-499.884v14.3l-2.872-.035a14.861,14.861,0,0,1-3.457-.176,5.985,5.985,0,0,1-4.431-4.615c-.155-.713-.155-18.268-.007-18.967a6.059,6.059,0,0,1,3.655-4.368c.931-.374,1.362-.416,4.382-.423l2.731-.007Z" transform="translate(0 -0.068)" fill="#afafaf"/>
    <path id="Path_2" data-name="Path 2" d="M111.659-417.7a3.762,3.762,0,0,0-1.482.741,3.127,3.127,0,0,0-1.051,2.625,2.22,2.22,0,0,0,.289,1.157,3.213,3.213,0,0,0,1.517,1.524,2.187,2.187,0,0,0,1.207.282,2.566,2.566,0,0,0,1.129-.127,3.185,3.185,0,0,0,2.194-3.528A3.241,3.241,0,0,0,111.659-417.7Z" transform="translate(-70.636 -92.233)" fill="#afafaf"/>
    <path id="Path_3" data-name="Path 3" d="M315.049-516.951c-.028.021-.049,7.67-.049,17,0,15.389.007,16.949.113,16.991.19.071,5.666.042,6.343-.028a8.808,8.808,0,0,0,6.767-4.657,10.481,10.481,0,0,0,.529-1.235c.445-1.327.43-.974.43-11.113,0-8.093-.014-9.3-.113-9.815a8.761,8.761,0,0,0-7.183-7.084,27.606,27.606,0,0,0-3.711-.106C316.482-517,315.071-516.979,315.049-516.951Zm7.536,15.368a3.452,3.452,0,0,1,2.371,2.2,3.689,3.689,0,0,1-.007,2.244,3.484,3.484,0,0,1-2.364,2.187,3.475,3.475,0,0,1-4.156-2.357,4.045,4.045,0,0,1,.028-1.99A3.426,3.426,0,0,1,322.585-501.583Z" transform="translate(-261.989)" fill="#afafaf"/>
  </g>
</svg>
