<svg width="16" height="18" viewBox="0 0 16 18" fill="none" xmlns="http://www.w3.org/2000/svg">
<path d="M0.838853 0L9.38776 8.41876L11.7316 6.09381L1.3693 0.159075C1.1966 0.0596534 1.01156 0.00458881 0.838853 0ZM0.123361 0.39157C0.0462605 0.527702 0 0.688307 0 0.868797V17.2291C0 17.3606 0.0277564 17.4784 0.0740165 17.584L8.8203 8.96941L0.123361 0.39157ZM12.4471 6.49762L9.94288 8.96941L12.4471 11.429L15.5065 9.69137C15.9413 9.44205 16.003 9.12543 15.9999 8.95717C15.9953 8.67879 15.8179 8.41876 15.5188 8.25969C15.2582 8.1205 13.323 7.00238 12.4471 6.49762ZM9.38776 9.52005L0.764837 18C0.908244 17.9924 1.06399 17.9618 1.20894 17.8776C1.54664 17.6834 8.3762 13.7661 8.3762 13.7661L11.7439 11.845L9.38776 9.52005Z" fill="#2196F3"/>
</svg>
