<svg xmlns="http://www.w3.org/2000/svg" width="198" height="152.819" viewBox="0 0 198 152.819">
  <path id="path-1" d="M197.239,117.962c-3.868,4.88-13.344,8.361-13.344,8.361L113.4,151.642V132.97l51.877-18.484c5.887-2.109,6.791-5.091,2.006-6.656s-13.424-1.12-19.316,1L113.4,121V101.623l1.992-.675a118.583,118.583,0,0,1,24.034-5.091c14.045-1.547,31.243.211,44.744,5.329,15.214,4.808,16.928,11.9,13.065,16.775Zm-77.124-31.8V38.413c0-5.608-1.034-10.771-6.3-12.233-4.03-1.291-6.53,2.451-6.53,8.055V153.819l-32.25-10.236V1c13.712,2.545,33.689,8.563,44.429,12.183,27.312,9.377,36.572,21.048,36.572,47.343,0,25.63-15.822,35.345-35.925,25.639ZM15.862,131.018c-15.619-4.4-18.219-13.564-11.1-18.844,6.58-4.875,17.769-8.545,17.769-8.545L68.773,87.187v18.745L35.5,117.841c-5.878,2.109-6.782,5.1-2.006,6.661s13.434,1.12,19.32-.994l15.961-5.793v16.771c-1.012.18-2.141.36-3.184.535a104.626,104.626,0,0,1-49.727-4Zm171.1,7.425A7.556,7.556,0,1,1,179.42,146,7.562,7.562,0,0,1,186.967,138.443ZM180.689,146a6.288,6.288,0,0,0,6.278,6.278A6.281,6.281,0,0,0,193.245,146a6.278,6.278,0,1,0-12.557,0Zm8.558-4.07A2.062,2.062,0,0,1,190.493,144a2.31,2.31,0,0,1-.328,1.282,2.226,2.226,0,0,1-.634.612,1.853,1.853,0,0,1,.5.418,1.924,1.924,0,0,1,.3,1.115l.04,1.075a2.76,2.76,0,0,0,.077.643.47.47,0,0,0,.238.364l.112.054v.49h-1.628l-.054-.094a1.477,1.477,0,0,1-.108-.328,5.1,5.1,0,0,1-.059-.657l-.068-1.336a.952.952,0,0,0-.472-.9,2.337,2.337,0,0,0-.9-.126h-2.289v3.445h-1.462v-8.406h3.9a3.781,3.781,0,0,1,1.588.288Zm-4.03,3.386h2.33a2,2,0,0,0,1.106-.261,1.107,1.107,0,0,0,.36-.958,1.006,1.006,0,0,0-.517-1.007,1.862,1.862,0,0,0-.805-.148h-2.474v2.375Z" transform="translate(-1 -1)" fill="#afaaaa" fill-rule="evenodd"/>
</svg>
