<svg width="24" height="18" viewBox="0 0 24 18" fill="none" xmlns="http://www.w3.org/2000/svg">
<path d="M18.5317 0C15.5219 0 13.0672 2.48396 13.0634 5.53151L9.65336 9.93956C9.58286 10.0308 9.54024 10.1408 9.53076 10.2563C9.52128 10.3717 9.54536 10.4874 9.60002 10.5891C9.65468 10.6909 9.73754 10.7742 9.83839 10.8288C9.93923 10.8834 10.0536 10.907 10.1675 10.8965L10.3422 10.8803C11.95 10.8876 13.2587 12.2161 13.2587 13.8462C13.2585 13.8703 13.2598 13.8944 13.2625 13.9184C13.25 13.9618 13.2425 14.0065 13.24 14.0517C13.159 15.578 11.899 16.8132 10.3293 16.8132C9.40998 16.8132 8.60244 16.4013 8.06658 15.7434C8.01824 15.6815 7.95817 15.6299 7.8899 15.5918C7.82164 15.5536 7.74653 15.5296 7.669 15.5213C7.59147 15.5129 7.51307 15.5203 7.43839 15.543C7.36371 15.5657 7.29425 15.6032 7.23409 15.6535C7.17393 15.7037 7.12428 15.7656 7.08803 15.8355C7.05179 15.9054 7.02969 15.982 7.02303 16.0607C7.01637 16.1394 7.02528 16.2186 7.04924 16.2937C7.0732 16.3689 7.11173 16.4384 7.16257 16.4983C7.91567 17.4229 9.06124 18 10.3293 18C12.408 18 14.1116 16.42 14.366 14.4071C15.6427 13.3944 17.2175 12.1367 18.5405 11.0762C21.5485 11.0712 24 8.58616 24 5.53846C24 2.48772 21.5438 0 18.5317 0ZM18.5317 1.18681C20.9098 1.18681 22.8282 3.12986 22.8282 5.53846C22.8282 7.94706 20.9098 9.89011 18.5317 9.89011H18.3364C18.2044 9.89018 18.0764 9.93538 17.9729 10.0184C16.8348 10.9309 15.516 11.9819 14.3218 12.9317C13.9734 11.3859 12.7691 10.1645 11.2447 9.80666L14.1105 6.10212C14.1912 5.99771 14.2352 5.86891 14.2352 5.73626V5.53846C14.2352 3.12986 16.1536 1.18681 18.5317 1.18681ZM18.5317 2.17582C16.705 2.17582 15.2117 3.68836 15.2117 5.53846C15.2117 7.38857 16.705 8.9011 18.5317 8.9011C20.3584 8.9011 21.8517 7.38857 21.8517 5.53846C21.8517 3.68836 20.3584 2.17582 18.5317 2.17582ZM18.5317 3.36264C19.7251 3.36264 20.68 4.32976 20.68 5.53846C20.68 6.74717 19.7251 7.71429 18.5317 7.71429C17.3383 7.71429 16.3834 6.74717 16.3834 5.53846C16.3834 4.32976 17.3383 3.36264 18.5317 3.36264ZM1.77743 8.25013C1.09262 8.24428 0.432376 8.6442 0.144117 9.31795C-0.238775 10.2129 0.167278 11.2718 1.05423 11.6611L9.62475 15.4772C9.63468 15.4817 9.64473 15.4858 9.65489 15.4896C9.8512 15.5642 10.0754 15.6264 10.3293 15.6264C10.9976 15.6264 11.6567 15.2204 11.9416 14.5338C12.322 13.6401 11.9173 12.5845 11.0326 12.195L2.45906 8.39694C2.45856 8.39668 2.45805 8.39642 2.45754 8.39616C2.23664 8.29921 2.0057 8.25208 1.77743 8.25013ZM1.76675 9.43887C1.84299 9.43883 1.91938 9.45361 1.99142 9.48523L10.5631 13.2821C10.5637 13.2824 10.5644 13.2826 10.565 13.2829C10.8498 13.4079 10.9908 13.7733 10.866 14.0652C10.8648 14.0678 10.8636 14.0703 10.8625 14.0729C10.7557 14.3327 10.5577 14.4396 10.3293 14.4396C10.2716 14.4396 10.1841 14.4222 10.0707 14.3797L1.52301 10.5731C1.522 10.5728 1.52098 10.5724 1.51996 10.572C1.23514 10.447 1.09451 10.0815 1.21939 9.78966C1.2811 9.64542 1.40199 9.53767 1.54361 9.48176C1.61442 9.4538 1.69052 9.43892 1.76675 9.43887Z" fill="#2196F3"/>
</svg>
