<svg width="16" height="18" viewBox="0 0 16 18" fill="none" xmlns="http://www.w3.org/2000/svg">
<path d="M1.163 5.86049H1.115C0.501 5.86049 0 6.34249 0 6.93049V11.5955C0 12.1855 0.5 12.6665 1.115 12.6665H1.164C1.778 12.6665 2.279 12.1845 2.279 11.5955V6.93049C2.279 6.34149 1.777 5.85849 1.163 5.85849V5.86049ZM2.813 13.3955C2.813 13.9365 3.273 14.3785 3.838 14.3785H4.933V16.8975C4.933 17.4885 5.436 17.9705 6.049 17.9705H6.097C6.712 17.9705 7.213 17.4885 7.213 16.8975V14.3775H8.745V16.8975C8.745 17.4885 9.249 17.9705 9.862 17.9705H9.909C10.524 17.9705 11.025 17.4885 11.025 16.8975V14.3775H12.121C12.685 14.3775 13.146 13.9375 13.146 13.3955V6.03049H2.813V13.3945V13.3955ZM10.552 1.56549L11.422 0.275488C11.4353 0.256009 11.4445 0.234015 11.449 0.210858C11.4535 0.1877 11.4532 0.163869 11.4481 0.140829C11.4431 0.117789 11.4333 0.0960267 11.4196 0.0768795C11.4058 0.0577323 11.3882 0.0416049 11.368 0.0294884C11.3269 0.00328551 11.2773 -0.00593784 11.2295 0.00376303C11.1817 0.0134639 11.1396 0.0413309 11.112 0.0814884L10.21 1.41649C9.49927 1.13943 8.74282 0.998314 7.98 1.00049C7.21652 0.998254 6.45941 1.13936 5.748 1.41649L4.848 0.0804884C4.81975 0.0407886 4.77732 0.0134618 4.72949 0.00415614C4.68166 -0.0051495 4.63208 0.00427739 4.591 0.0304884C4.57068 0.0425214 4.55304 0.0585871 4.53916 0.077696C4.52529 0.0968048 4.51547 0.118552 4.51032 0.141598C4.50517 0.164645 4.50479 0.188502 4.5092 0.2117C4.51362 0.234899 4.52274 0.256948 4.536 0.276488L5.407 1.56649C3.837 2.30549 2.779 3.69749 2.779 5.29549C2.779 5.39349 2.785 5.49049 2.794 5.58549H13.165C13.174 5.49049 13.179 5.39349 13.179 5.29549C13.179 3.69749 12.12 2.30549 10.551 1.56549H10.552ZM5.575 3.87549C5.51061 3.87695 5.44657 3.86567 5.38656 3.84232C5.32654 3.81896 5.27173 3.78397 5.22527 3.73937C5.17881 3.69477 5.14162 3.64143 5.11583 3.58242C5.09005 3.52341 5.07617 3.45988 5.075 3.39549C5.075 3.13049 5.299 2.91749 5.575 2.91749C5.852 2.91749 6.075 3.13049 6.075 3.39549C6.07383 3.45988 6.05995 3.52341 6.03417 3.58242C6.00838 3.64143 5.97119 3.69477 5.92473 3.73937C5.87827 3.78397 5.82346 3.81896 5.76344 3.84232C5.70342 3.86567 5.63939 3.87695 5.575 3.87549V3.87549ZM10.384 3.87549C10.3196 3.87695 10.2556 3.86567 10.1956 3.84232C10.1355 3.81896 10.0807 3.78397 10.0343 3.73937C9.98781 3.69477 9.95062 3.64143 9.92483 3.58242C9.89905 3.52341 9.88517 3.45988 9.884 3.39549C9.884 3.13049 10.108 2.91749 10.384 2.91749C10.66 2.91749 10.882 3.13049 10.882 3.39549C10.881 3.45975 10.8672 3.52317 10.8416 3.58211C10.816 3.64105 10.779 3.69435 10.7327 3.73895C10.6865 3.78355 10.6318 3.81857 10.572 3.842C10.5121 3.86543 10.4483 3.87681 10.384 3.87549V3.87549ZM14.842 5.86049H14.796C14.182 5.86049 13.679 6.34249 13.679 6.93049V11.5955C13.679 12.1855 14.182 12.6665 14.796 12.6665H14.843C15.458 12.6665 15.958 12.1845 15.958 11.5955V6.93049C15.958 6.34149 15.457 5.85849 14.842 5.85849V5.86049Z" fill="#2196F3"/>
</svg>
