<svg width="15" height="18" viewBox="0 0 15 18" fill="none" xmlns="http://www.w3.org/2000/svg">
<path d="M10.869 0H10.996C11.098 1.26 10.617 2.202 10.033 2.884C9.459 3.561 8.674 4.218 7.404 4.118C7.32 2.876 7.801 2.004 8.384 1.324C8.927 0.69 9.919 0.126 10.87 0H10.869ZM14.625 13.196V13.232C14.2805 14.27 13.7765 15.2481 13.131 16.131C12.561 16.92 11.864 17.981 10.618 17.981C9.541 17.981 8.826 17.285 7.722 17.266C6.555 17.246 5.912 17.849 4.845 18H4.481C3.698 17.886 3.065 17.26 2.604 16.698C1.06624 14.8389 0.154894 12.5417 0 10.134L0 9.326C0.083 7.357 1.033 5.756 2.295 4.981C2.962 4.568 3.878 4.217 4.898 4.374C5.335 4.442 5.782 4.593 6.173 4.742C6.544 4.886 7.008 5.14 7.448 5.127C7.746 5.118 8.042 4.962 8.342 4.852C9.222 4.532 10.082 4.165 11.219 4.338C12.584 4.545 13.553 5.156 14.152 6.098C12.997 6.838 12.084 7.953 12.24 9.858C12.378 11.588 13.377 12.6 14.625 13.196V13.196Z" fill="#2196F3"/>
</svg>
