<svg width="15" height="18" viewBox="0 0 15 18" fill="none" xmlns="http://www.w3.org/2000/svg">
<path d="M14.5051 14.452C13.9921 14.236 13.7721 13.949 13.7931 13.522C13.8151 13.022 13.5391 12.656 13.4081 12.512C13.4871 12.2 13.7181 11.126 13.4081 10.192C13.0741 9.193 12.0561 7.667 11.0051 6.167C10.5751 5.551 10.5551 4.882 10.5311 4.107C10.5091 3.367 10.4831 2.528 10.0811 1.597C9.6451 0.582 8.7701 0 7.6791 0C7.02561 0.00125486 6.38787 0.200702 5.8501 0.572C4.8001 1.316 4.9401 2.938 5.0311 4.012C5.0441 4.159 5.0551 4.298 5.0621 4.416C5.1231 5.468 5.0681 6.022 4.9951 6.19C4.9481 6.3 4.7161 6.613 4.4711 6.945C4.2171 7.288 3.9301 7.677 3.6941 8.039C3.4131 8.475 3.1861 9.142 2.9661 9.786C2.8061 10.257 2.6541 10.703 2.5061 10.969C2.2261 11.481 2.2961 11.959 2.3541 12.179C2.2481 12.255 2.0951 12.404 1.9661 12.684C1.8101 13.026 1.4931 13.21 0.834104 13.341C0.531104 13.404 0.322104 13.535 0.213104 13.729C0.0531035 14.012 0.140104 14.367 0.219104 14.61C0.336104 14.967 0.263104 15.193 0.131104 15.603C0.101104 15.698 0.0661035 15.805 0.0311035 15.923C0.00296976 16.0062 -0.00624307 16.0946 0.00413699 16.1818C0.0145171 16.269 0.0442283 16.3528 0.0911035 16.427C0.339104 16.818 1.0651 16.956 1.8131 17.047C2.2601 17.101 2.7481 17.284 3.2211 17.462C3.6841 17.635 4.1631 17.815 4.5981 17.87C4.6641 17.878 4.7291 17.882 4.7931 17.882C5.4501 17.882 5.7471 17.435 5.8411 17.251C6.46323 17.1216 7.09511 17.0447 7.7301 17.021C8.36176 17.013 8.99216 17.0798 9.6081 17.22C9.6801 17.362 9.8701 17.686 10.1741 17.853C10.3401 17.946 10.5721 18 10.8101 18C11.0641 18 11.5471 17.938 11.9291 17.525C12.3091 17.111 13.2621 16.581 13.9581 16.195C14.1131 16.108 14.2581 16.028 14.3851 15.955C14.7751 15.732 14.9891 15.415 14.9701 15.083C14.96 14.9451 14.9112 14.8128 14.8293 14.7013C14.7474 14.5899 14.6357 14.5038 14.5071 14.453L14.5051 14.452ZM5.8581 14.372C5.8091 14.021 5.3681 13.672 4.8581 13.268C4.4411 12.938 3.9681 12.563 3.8381 12.246C3.5681 11.592 3.7811 10.442 4.1511 9.85C4.3341 9.554 4.4831 9.104 4.6281 8.67C4.7841 8.2 4.9451 7.714 5.1251 7.502C5.4111 7.17 5.6751 6.524 5.7221 6.016C5.9891 6.278 6.4041 6.611 6.7881 6.611C6.84562 6.61101 6.90284 6.60294 6.9581 6.587C7.2211 6.509 7.6071 6.28 7.9801 6.059C8.3021 5.868 8.6981 5.633 8.8481 5.611C9.1041 5.989 10.5911 9.368 10.7431 10.453C10.8285 11.068 10.8045 11.6933 10.6721 12.3C10.6135 12.2916 10.5543 12.2873 10.4951 12.287C10.0811 12.287 9.9711 12.519 9.9431 12.657C9.8691 13.017 9.8611 14.169 9.8611 14.428C9.7111 14.623 8.9531 15.544 7.8661 15.709C7.4231 15.775 7.0091 15.809 6.6361 15.809C6.3181 15.809 6.1151 15.783 6.0301 15.77L5.4841 15.128C5.6991 15.019 5.9141 14.788 5.8581 14.373V14.372ZM6.5511 3.786C6.53418 3.79346 6.51751 3.80147 6.5011 3.81C6.4995 3.7715 6.49583 3.73311 6.4901 3.695C6.4301 3.342 6.2021 3.086 5.9481 3.086C5.92867 3.08615 5.90928 3.08782 5.8901 3.091C5.7391 3.117 5.6201 3.233 5.5551 3.399C5.6121 3.036 5.8121 2.768 6.0501 2.768C6.3281 2.768 6.5641 3.153 6.5641 3.61C6.5641 3.667 6.5601 3.725 6.5511 3.786ZM8.7171 4.058C8.74365 3.97114 8.75713 3.88082 8.7571 3.79C8.7571 3.376 8.5011 3.052 8.1741 3.052C7.8551 3.052 7.5961 3.383 7.5961 3.79C7.5961 3.818 7.5961 3.846 7.5991 3.874C7.58245 3.86729 7.56579 3.86062 7.5491 3.854C7.51283 3.73952 7.49461 3.62009 7.4951 3.5C7.4951 3.005 7.8031 2.602 8.1811 2.602C8.5611 2.602 8.8681 3.005 8.8681 3.5C8.8681 3.706 8.8131 3.903 8.7181 4.059L8.7171 4.058ZM8.4371 5.021C8.4321 5.046 8.4211 5.057 8.2921 5.126C8.20843 5.16967 8.12638 5.21637 8.0461 5.266L7.9791 5.309C7.7071 5.477 7.0721 5.873 6.9001 5.896C6.7831 5.912 6.7101 5.866 6.5481 5.752C6.50915 5.72478 6.46981 5.69811 6.4301 5.672C6.1371 5.474 5.9481 5.256 5.9271 5.171C6.0221 5.095 6.2601 4.905 6.3811 4.792C6.6281 4.557 6.8761 4.399 6.9981 4.399L7.0171 4.4C7.1611 4.427 7.5171 4.572 7.7771 4.679C7.8971 4.728 8.0011 4.771 8.0741 4.797C8.3041 4.879 8.4241 4.982 8.4381 5.021H8.4371ZM10.5051 16.02C10.6351 15.42 10.7841 14.602 10.7601 14.12C10.7541 14.01 10.7451 13.891 10.7361 13.776C10.7191 13.561 10.6931 13.241 10.7191 13.146C10.7249 13.1431 10.7309 13.1408 10.7371 13.139C10.7371 13.415 10.7971 13.964 11.2241 14.156C11.3521 14.213 11.4971 14.242 11.6571 14.242C12.0861 14.242 12.5611 14.026 12.7571 13.826C12.8638 13.7117 12.9571 13.5855 13.0351 13.45C13.0531 13.5072 13.0599 13.5673 13.0551 13.627C13.0291 14.033 13.2211 14.572 13.5871 14.771L13.6401 14.8C13.7701 14.87 14.1171 15.057 14.1221 15.145C14.1221 15.145 14.1191 15.155 14.1001 15.175C14.0131 15.255 13.7081 15.415 13.4131 15.57C12.8891 15.845 12.2961 16.156 12.0291 16.444C11.6541 16.85 11.2291 17.122 10.9731 17.122C10.9446 17.1225 10.9163 17.1184 10.8891 17.11C10.6111 17.02 10.3821 16.608 10.5051 16.02ZM1.0151 14.487C0.987103 14.351 0.965103 14.243 0.989103 14.139C1.0061 14.061 1.3791 13.979 1.5371 13.943C1.7601 13.893 1.9911 13.842 2.1421 13.748C2.3461 13.621 2.4561 13.387 2.5541 13.18C2.6241 13.03 2.6971 12.876 2.7841 12.826C2.79221 12.821 2.80161 12.8186 2.8111 12.819C2.9731 12.819 3.3141 13.17 3.5111 13.484C3.5611 13.564 3.6531 13.722 3.7591 13.905C4.0791 14.455 4.5161 15.205 4.7441 15.458C4.9501 15.684 5.2841 16.119 5.2011 16.493C5.1411 16.783 4.8221 17.018 4.7471 17.07C4.71392 17.0771 4.68004 17.0805 4.6461 17.08C4.2081 17.08 3.3431 16.706 2.8781 16.506L2.8101 16.476C2.5501 16.364 2.1261 16.294 1.7161 16.226C1.3901 16.171 0.944104 16.097 0.870104 16.03C0.810104 15.961 0.880104 15.736 0.940104 15.538C0.985104 15.396 1.0301 15.248 1.0551 15.094C1.07988 14.8909 1.06631 14.685 1.0151 14.487Z" fill="#2196F3"/>
</svg>
