<svg width="23" height="18" viewBox="0 0 23 18" fill="none" xmlns="http://www.w3.org/2000/svg">
<path fill-rule="evenodd" clip-rule="evenodd" d="M22.7955 13.7765C22.3462 14.3513 21.2454 14.7613 21.2454 14.7613L13.0571 17.7436V15.5442L19.0832 13.367C19.767 13.1186 19.872 12.7674 19.3162 12.583C18.7614 12.3982 17.7567 12.4511 17.0724 12.7006L13.0571 14.1346V11.852L13.2885 11.7726C13.2885 11.7726 14.4488 11.3562 16.0803 11.1729C17.7118 10.9907 19.7095 11.1978 21.2778 11.8006C23.0452 12.3669 23.2442 13.2018 22.7955 13.7765ZM13.8365 10.0314V4.40677C13.8365 3.7462 13.7164 3.13808 13.1052 2.96592C12.6371 2.81389 12.3466 3.25462 12.3466 3.91466V18L8.60035 16.7943V0C10.1932 0.299824 12.5138 1.00859 13.7613 1.43502C16.9339 2.53949 18.0096 3.91413 18.0096 7.01142C18.0096 10.0303 16.1717 11.1745 13.8365 10.0314ZM1.72639 15.3143C-0.0879584 14.7962 -0.389915 13.7167 0.43707 13.0948C1.20137 12.5205 2.50114 12.0883 2.50114 12.0883L7.87262 10.1516V12.3595L4.00727 13.7622C3.32447 14.0107 3.21946 14.3624 3.77427 14.5467C4.3296 14.7311 5.33473 14.6786 6.01857 14.4297L7.87262 13.7474V15.7227C7.75508 15.7439 7.62395 15.7651 7.50275 15.7858C5.64818 16.093 3.67292 15.9648 1.72639 15.3143ZM21.6023 16.1889C21.8368 16.1889 22.0568 16.281 22.2224 16.4511C22.388 16.6185 22.4794 16.842 22.4794 17.0793C22.4794 17.3177 22.388 17.5402 22.2224 17.7076C22.0568 17.8766 21.8368 17.9687 21.6023 17.9687C21.3677 17.9687 21.1483 17.8766 20.9821 17.7076C20.8165 17.5402 20.7256 17.3177 20.7256 17.0793C20.7256 16.5888 21.1185 16.1889 21.6023 16.1889ZM20.873 17.0793C20.873 17.2769 20.9487 17.4629 21.0866 17.6016C21.224 17.7426 21.4079 17.8188 21.6023 17.8188C22.005 17.8188 22.3315 17.4872 22.3315 17.0793C22.3315 16.8812 22.2563 16.6953 22.1179 16.556C21.9805 16.4151 21.7966 16.3393 21.6023 16.3393C21.4079 16.3393 21.224 16.4151 21.0866 16.556C20.9487 16.6953 20.873 16.8812 20.873 17.0793ZM21.8671 16.5999C21.9632 16.6428 22.0118 16.7255 22.0118 16.8431C22.0118 16.9035 21.9993 16.9543 21.9737 16.9941C21.9554 17.0227 21.9293 17.046 21.9 17.0661C21.923 17.0799 21.9434 17.0963 21.9585 17.1154C21.9794 17.1429 21.9915 17.1869 21.993 17.2467L21.9977 17.3733C21.9993 17.4072 22.0014 17.4332 22.0066 17.4491C22.0118 17.4724 22.0218 17.4872 22.0343 17.492L22.0474 17.4984V17.5127V17.5344V17.5561H22.0259H21.8708H21.8582L21.852 17.545C21.8467 17.5344 21.8431 17.5222 21.8394 17.5063C21.8368 17.492 21.8342 17.4671 21.8326 17.429L21.8248 17.2716C21.8227 17.2171 21.8044 17.1832 21.7699 17.1652C21.7485 17.1551 21.713 17.1503 21.6649 17.1503H21.399V17.5344V17.5561H21.3771H21.2507H21.2292V17.5344V16.5878V16.566H21.2507H21.6827C21.7569 16.566 21.8191 16.5772 21.8671 16.6L21.8671 16.5999ZM21.399 16.9988H21.6696C21.724 16.9988 21.7673 16.9888 21.7982 16.9681C21.8264 16.9474 21.84 16.9098 21.84 16.8553C21.84 16.7959 21.8206 16.7573 21.7799 16.7366C21.7574 16.7255 21.7261 16.7191 21.6864 16.7191H21.399V16.9988Z" fill="#2196F3"/>
</svg>
