<svg width="18" height="18" viewBox="0 0 18 18" fill="none" xmlns="http://www.w3.org/2000/svg">
<path d="M8.1025 17.963C6.71598 17.8303 5.31221 17.3326 4.10632 16.5463C3.09582 15.8873 2.86763 15.6165 2.86763 15.0759C2.86763 13.99 4.06219 12.0882 6.106 9.92016C7.26674 8.68884 8.88358 7.24556 9.05844 7.28465C9.39831 7.36061 12.1159 10.01 13.1333 11.2572C14.742 13.2294 15.4816 14.8442 15.1059 15.5641C14.8203 16.1114 13.048 17.181 11.7459 17.5919C10.6728 17.9306 9.26347 18.0741 8.1025 17.963ZM1.50284 13.9469C0.663132 12.6594 0.238887 11.3919 0.0340585 9.55859C-0.0335764 8.95323 -0.00933955 8.60697 0.18764 7.36446C0.433146 5.81584 1.31554 4.02429 2.37582 2.92174C2.8274 2.45215 2.86773 2.44071 3.41818 2.62604C4.08663 2.8511 4.80048 3.34385 5.90757 4.34436L6.5535 4.92812L6.20078 5.36121C4.56341 7.37162 2.83493 10.2213 2.18352 11.9844C1.82939 12.9428 1.68655 13.9049 1.83893 14.3055C1.9418 14.5759 1.84731 14.4751 1.50284 13.9469ZM16.2422 14.1659C16.3252 13.7612 16.2203 13.0179 15.9744 12.2682C15.4418 10.6446 13.6618 7.62416 12.0273 5.57056L11.5128 4.9241L12.0694 4.41323C12.7963 3.7462 13.3009 3.34679 13.8454 3.0076C14.2751 2.73994 14.8891 2.50299 15.1531 2.50299C15.3158 2.50299 15.8887 3.09718 16.3511 3.74563C17.0674 4.74994 17.5943 5.96738 17.8613 7.23475C18.0338 8.05364 18.0481 9.8065 17.8891 10.6234C17.7585 11.2938 17.4829 12.1633 17.2139 12.7531C17.0125 13.195 16.5113 14.0532 16.2917 14.3325C16.1788 14.476 16.1787 14.4757 16.2422 14.1659ZM8.25095 2.19641C7.49679 1.81364 6.33336 1.40276 5.69067 1.29222C5.46536 1.25347 5.08102 1.23186 4.83657 1.24419C4.30631 1.27096 4.32999 1.24324 5.18064 0.841573C5.88786 0.507632 6.47777 0.311259 7.27859 0.143202C8.17945 -0.0458494 9.87274 -0.048068 10.7593 0.138642C11.7168 0.340304 12.8443 0.759657 13.4796 1.15042L13.6684 1.26657L13.2352 1.2447C12.3743 1.20125 11.1196 1.54887 9.77253 2.20407C9.36622 2.40169 9.01274 2.55953 8.98702 2.55482C8.96129 2.5501 8.63007 2.38882 8.25095 2.19641Z" fill="#2196F3"/>
</svg>
